<?xml version="1.0" encoding="UTF-8" standalone="no"?>
<!DOCTYPE svg PUBLIC "-//W3C//DTD SVG 1.1//EN"
 "http://www.w3.org/Graphics/SVG/1.1/DTD/svg11.dtd">
<!-- Generated by graphviz version 2.48.0 (20210717.1556)
 -->
<!-- Pages: 1 -->
<svg width="890pt" height="620pt"
 viewBox="0.00 0.00 889.68 620.00" xmlns="http://www.w3.org/2000/svg" xmlns:xlink="http://www.w3.org/1999/xlink">
<g id="graph0" class="graph" transform="scale(1 1) rotate(0) translate(4 616)">
<polygon fill="white" stroke="transparent" points="-4,4 -4,-616 885.68,-616 885.68,4 -4,4"/>
<!-- [root] aws_elb.web (expand) -->
<g id="node1" class="node">
<title>[root] aws_elb.web (expand)</title>
<polygon fill="none" stroke="black" points="387.5,-396 298.5,-396 298.5,-360 387.5,-360 387.5,-396"/>
<text text-anchor="middle" x="343" y="-374.3" font-family="Times,serif" font-size="14.00">aws_elb.web</text>
</g>
<!-- [root] aws_instance.web (expand) -->
<g id="node2" class="node">
<title>[root] aws_instance.web (expand)</title>
<polygon fill="none" stroke="black" points="311,-324 193,-324 193,-288 311,-288 311,-324"/>
<text text-anchor="middle" x="252" y="-302.3" font-family="Times,serif" font-size="14.00">aws_instance.web</text>
</g>
<!-- [root] aws_elb.web (expand)&#45;&gt;[root] aws_instance.web (expand) -->
<g id="edge1" class="edge">
<title>[root] aws_elb.web (expand)&#45;&gt;[root] aws_instance.web (expand)</title>
<path fill="none" stroke="black" d="M320.51,-359.7C309.04,-350.88 294.94,-340.03 282.52,-330.47"/>
<polygon fill="black" stroke="black" points="284.3,-327.43 274.24,-324.1 280.03,-332.98 284.3,-327.43"/>
</g>
<!-- [root] aws_security_group.elb (expand) -->
<g id="node6" class="node">
<title>[root] aws_security_group.elb (expand)</title>
<polygon fill="none" stroke="black" points="479,-324 329,-324 329,-288 479,-288 479,-324"/>
<text text-anchor="middle" x="404" y="-302.3" font-family="Times,serif" font-size="14.00">aws_security_group.elb</text>
</g>
<!-- [root] aws_elb.web (expand)&#45;&gt;[root] aws_security_group.elb (expand) -->
<g id="edge2" class="edge">
<title>[root] aws_elb.web (expand)&#45;&gt;[root] aws_security_group.elb (expand)</title>
<path fill="none" stroke="black" d="M358.08,-359.7C365.39,-351.3 374.31,-341.07 382.34,-331.86"/>
<polygon fill="black" stroke="black" points="385.16,-333.94 389.09,-324.1 379.89,-329.34 385.16,-333.94"/>
</g>
<!-- [root] aws_security_group.default (expand) -->
<g id="node5" class="node">
<title>[root] aws_security_group.default (expand)</title>
<polygon fill="none" stroke="black" points="172,-252 0,-252 0,-216 172,-216 172,-252"/>
<text text-anchor="middle" x="86" y="-230.3" font-family="Times,serif" font-size="14.00">aws_security_group.default</text>
</g>
<!-- [root] aws_instance.web (expand)&#45;&gt;[root] aws_security_group.default (expand) -->
<g id="edge3" class="edge">
<title>[root] aws_instance.web (expand)&#45;&gt;[root] aws_security_group.default (expand)</title>
<path fill="none" stroke="black" d="M211.39,-287.88C188.6,-278.26 159.97,-266.19 135.83,-256.01"/>
<polygon fill="black" stroke="black" points="137.05,-252.73 126.48,-252.07 134.33,-259.18 137.05,-252.73"/>
</g>
<!-- [root] aws_subnet.default (expand) -->
<g id="node7" class="node">
<title>[root] aws_subnet.default (expand)</title>
<polygon fill="none" stroke="black" points="314,-252 190,-252 190,-216 314,-216 314,-252"/>
<text text-anchor="middle" x="252" y="-230.3" font-family="Times,serif" font-size="14.00">aws_subnet.default</text>
</g>
<!-- [root] aws_instance.web (expand)&#45;&gt;[root] aws_subnet.default (expand) -->
<g id="edge4" class="edge">
<title>[root] aws_instance.web (expand)&#45;&gt;[root] aws_subnet.default (expand)</title>
<path fill="none" stroke="black" d="M252,-287.7C252,-279.98 252,-270.71 252,-262.11"/>
<polygon fill="black" stroke="black" points="255.5,-262.1 252,-252.1 248.5,-262.1 255.5,-262.1"/>
</g>
<!-- [root] var.aws_amis -->
<g id="node11" class="node">
<title>[root] var.aws_amis</title>
<polygon fill="none" stroke="black" points="418,-252 332,-252 332,-216 424,-216 424,-246 418,-252"/>
<polyline fill="none" stroke="black" points="418,-252 418,-246 "/>
<polyline fill="none" stroke="black" points="424,-246 418,-246 "/>
<text text-anchor="middle" x="378" y="-230.3" font-family="Times,serif" font-size="14.00">var.aws_amis</text>
</g>
<!-- [root] aws_instance.web (expand)&#45;&gt;[root] var.aws_amis -->
<g id="edge5" class="edge">
<title>[root] aws_instance.web (expand)&#45;&gt;[root] var.aws_amis</title>
<path fill="none" stroke="black" d="M282.82,-287.88C299.45,-278.64 320.16,-267.13 338.02,-257.21"/>
<polygon fill="black" stroke="black" points="340.02,-260.11 347.06,-252.19 336.62,-253.99 340.02,-260.11"/>
</g>
<!-- [root] aws_internet_gateway.default (expand) -->
<g id="node3" class="node">
<title>[root] aws_internet_gateway.default (expand)</title>
<polygon fill="none" stroke="black" points="598.5,-396 415.5,-396 415.5,-360 598.5,-360 598.5,-396"/>
<text text-anchor="middle" x="507" y="-374.3" font-family="Times,serif" font-size="14.00">aws_internet_gateway.default</text>
</g>
<!-- [root] aws_vpc.default (expand) -->
<g id="node8" class="node">
<title>[root] aws_vpc.default (expand)</title>
<polygon fill="none" stroke="black" points="406,-180 298,-180 298,-144 406,-144 406,-180"/>
<text text-anchor="middle" x="352" y="-158.3" font-family="Times,serif" font-size="14.00">aws_vpc.default</text>
</g>
<!-- [root] aws_internet_gateway.default (expand)&#45;&gt;[root] aws_vpc.default (expand) -->
<g id="edge6" class="edge">
<title>[root] aws_internet_gateway.default (expand)&#45;&gt;[root] aws_vpc.default (expand)</title>
<path fill="none" stroke="black" d="M505.54,-359.93C501.89,-327.5 489.47,-256.62 449,-216 436.43,-203.39 420.23,-192.95 404.68,-184.78"/>
<polygon fill="black" stroke="black" points="406.14,-181.59 395.64,-180.23 402.99,-187.85 406.14,-181.59"/>
</g>
<!-- [root] aws_route.internet_access (expand) -->
<g id="node4" class="node">
<title>[root] aws_route.internet_access (expand)</title>
<polygon fill="none" stroke="black" points="588.5,-468 425.5,-468 425.5,-432 588.5,-432 588.5,-468"/>
<text text-anchor="middle" x="507" y="-446.3" font-family="Times,serif" font-size="14.00">aws_route.internet_access</text>
</g>
<!-- [root] aws_route.internet_access (expand)&#45;&gt;[root] aws_internet_gateway.default (expand) -->
<g id="edge7" class="edge">
<title>[root] aws_route.internet_access (expand)&#45;&gt;[root] aws_internet_gateway.default (expand)</title>
<path fill="none" stroke="black" d="M507,-431.7C507,-423.98 507,-414.71 507,-406.11"/>
<polygon fill="black" stroke="black" points="510.5,-406.1 507,-396.1 503.5,-406.1 510.5,-406.1"/>
</g>
<!-- [root] aws_security_group.default (expand)&#45;&gt;[root] aws_vpc.default (expand) -->
<g id="edge8" class="edge">
<title>[root] aws_security_group.default (expand)&#45;&gt;[root] aws_vpc.default (expand)</title>
<path fill="none" stroke="black" d="M150.73,-215.97C192.44,-204.99 246.45,-190.78 288.02,-179.84"/>
<polygon fill="black" stroke="black" points="288.98,-183.2 297.76,-177.27 287.2,-176.43 288.98,-183.2"/>
</g>
<!-- [root] aws_security_group.elb (expand)&#45;&gt;[root] aws_vpc.default (expand) -->
<g id="edge9" class="edge">
<title>[root] aws_security_group.elb (expand)&#45;&gt;[root] aws_vpc.default (expand)</title>
<path fill="none" stroke="black" d="M417.46,-287.86C430.21,-269.38 445.68,-239.44 433,-216 426.18,-203.39 414.91,-193.3 402.92,-185.45"/>
<polygon fill="black" stroke="black" points="404.48,-182.3 394.11,-180.13 400.86,-188.29 404.48,-182.3"/>
</g>
<!-- [root] aws_subnet.default (expand)&#45;&gt;[root] aws_vpc.default (expand) -->
<g id="edge10" class="edge">
<title>[root] aws_subnet.default (expand)&#45;&gt;[root] aws_vpc.default (expand)</title>
<path fill="none" stroke="black" d="M276.46,-215.88C289.3,-206.89 305.2,-195.76 319.09,-186.03"/>
<polygon fill="black" stroke="black" points="321.26,-188.79 327.44,-180.19 317.24,-183.06 321.26,-188.79"/>
</g>
<!-- [root] provider[&quot;registry.terraform.io/hashicorp/aws&quot;] -->
<g id="node10" class="node">
<title>[root] provider[&quot;registry.terraform.io/hashicorp/aws&quot;]</title>
<polygon fill="none" stroke="black" points="352,-108 93.93,-90 352,-72 610.07,-90 352,-108"/>
<text text-anchor="middle" x="352" y="-86.3" font-family="Times,serif" font-size="14.00">provider[&quot;registry.terraform.io/hashicorp/aws&quot;]</text>
</g>
<!-- [root] aws_vpc.default (expand)&#45;&gt;[root] provider[&quot;registry.terraform.io/hashicorp/aws&quot;] -->
<g id="edge11" class="edge">
<title>[root] aws_vpc.default (expand)&#45;&gt;[root] provider[&quot;registry.terraform.io/hashicorp/aws&quot;]</title>
<path fill="none" stroke="black" d="M352,-143.7C352,-135.98 352,-126.71 352,-118.11"/>
<polygon fill="black" stroke="black" points="355.5,-118.1 352,-108.1 348.5,-118.1 355.5,-118.1"/>
</g>
<!-- [root] output.address -->
<g id="node9" class="node">
<title>[root] output.address</title>
<polygon fill="none" stroke="black" points="303,-468 211,-468 211,-432 309,-432 309,-462 303,-468"/>
<polyline fill="none" stroke="black" points="303,-468 303,-462 "/>
<polyline fill="none" stroke="black" points="309,-462 303,-462 "/>
<text text-anchor="middle" x="260" y="-446.3" font-family="Times,serif" font-size="14.00">output.address</text>
</g>
<!-- [root] output.address&#45;&gt;[root] aws_elb.web (expand) -->
<g id="edge14" class="edge">
<title>[root] output.address&#45;&gt;[root] aws_elb.web (expand)</title>
<path fill="none" stroke="black" d="M280.52,-431.7C290.87,-422.97 303.59,-412.24 314.84,-402.75"/>
<polygon fill="black" stroke="black" points="317.33,-405.23 322.72,-396.1 312.82,-399.88 317.33,-405.23"/>
</g>
<!-- [root] var.aws_region -->
<g id="node12" class="node">
<title>[root] var.aws_region</title>
<polygon fill="none" stroke="black" points="397,-36 301,-36 301,0 403,0 403,-30 397,-36"/>
<polyline fill="none" stroke="black" points="397,-36 397,-30 "/>
<polyline fill="none" stroke="black" points="403,-30 397,-30 "/>
<text text-anchor="middle" x="352" y="-14.3" font-family="Times,serif" font-size="14.00">var.aws_region</text>
</g>
<!-- [root] provider[&quot;registry.terraform.io/hashicorp/aws&quot;]&#45;&gt;[root] var.aws_region -->
<g id="edge17" class="edge">
<title>[root] provider[&quot;registry.terraform.io/hashicorp/aws&quot;]&#45;&gt;[root] var.aws_region</title>
<path fill="none" stroke="black" d="M352,-71.7C352,-63.98 352,-54.71 352,-46.11"/>
<polygon fill="black" stroke="black" points="355.5,-46.1 352,-36.1 348.5,-46.1 355.5,-46.1"/>
</g>
<!-- [root] meta.count&#45;boundary (EachMode fixup) -->
<g id="node13" class="node">
<title>[root] meta.count&#45;boundary (EachMode fixup)</title>
<ellipse fill="none" stroke="black" cx="218" cy="-522" rx="180.07" ry="18"/>
<text text-anchor="middle" x="218" y="-518.3" font-family="Times,serif" font-size="14.00">[root] meta.count&#45;boundary (EachMode fixup)</text>
</g>
<!-- [root] meta.count&#45;boundary (EachMode fixup)&#45;&gt;[root] aws_route.internet_access (expand) -->
<g id="edge12" class="edge">
<title>[root] meta.count&#45;boundary (EachMode fixup)&#45;&gt;[root] aws_route.internet_access (expand)</title>
<path fill="none" stroke="black" d="M283.22,-505.2C325.79,-494.89 381.67,-481.36 426.93,-470.39"/>
<polygon fill="black" stroke="black" points="427.82,-473.78 436.72,-468.02 426.17,-466.98 427.82,-473.78"/>
</g>
<!-- [root] meta.count&#45;boundary (EachMode fixup)&#45;&gt;[root] output.address -->
<g id="edge13" class="edge">
<title>[root] meta.count&#45;boundary (EachMode fixup)&#45;&gt;[root] output.address</title>
<path fill="none" stroke="black" d="M228.38,-503.7C233.26,-495.56 239.19,-485.69 244.58,-476.7"/>
<polygon fill="black" stroke="black" points="247.59,-478.48 249.74,-468.1 241.59,-474.88 247.59,-478.48"/>
</g>
<!-- [root] provider[&quot;registry.terraform.io/hashicorp/aws&quot;] (close) -->
<g id="node14" class="node">
<title>[root] provider[&quot;registry.terraform.io/hashicorp/aws&quot;] (close)</title>
<ellipse fill="none" stroke="black" cx="649" cy="-522" rx="232.86" ry="18"/>
<text text-anchor="middle" x="649" y="-518.3" font-family="Times,serif" font-size="14.00">[root] provider[&quot;registry.terraform.io/hashicorp/aws&quot;] (close)</text>
</g>
<!-- [root] provider[&quot;registry.terraform.io/hashicorp/aws&quot;] (close)&#45;&gt;[root] aws_elb.web (expand) -->
<g id="edge15" class="edge">
<title>[root] provider[&quot;registry.terraform.io/hashicorp/aws&quot;] (close)&#45;&gt;[root] aws_elb.web (expand)</title>
<path fill="none" stroke="black" d="M644.07,-503.92C637.23,-483.43 622.81,-449.65 598,-432 527.61,-381.92 491.25,-415.1 407,-396 403.86,-395.29 400.64,-394.53 397.4,-393.74"/>
<polygon fill="black" stroke="black" points="398.21,-390.33 387.66,-391.31 396.51,-397.13 398.21,-390.33"/>
</g>
<!-- [root] provider[&quot;registry.terraform.io/hashicorp/aws&quot;] (close)&#45;&gt;[root] aws_route.internet_access (expand) -->
<g id="edge16" class="edge">
<title>[root] provider[&quot;registry.terraform.io/hashicorp/aws&quot;] (close)&#45;&gt;[root] aws_route.internet_access (expand)</title>
<path fill="none" stroke="black" d="M614.63,-504.05C595.41,-494.58 571.26,-482.68 550.71,-472.55"/>
<polygon fill="black" stroke="black" points="552.07,-469.31 541.55,-468.03 548.97,-475.59 552.07,-469.31"/>
</g>
<!-- [root] root -->
<g id="node15" class="node">
<title>[root] root</title>
<ellipse fill="none" stroke="black" cx="433" cy="-594" rx="48.19" ry="18"/>
<text text-anchor="middle" x="433" y="-590.3" font-family="Times,serif" font-size="14.00">[root] root</text>
</g>
<!-- [root] root&#45;&gt;[root] meta.count&#45;boundary (EachMode fixup) -->
<g id="edge18" class="edge">
<title>[root] root&#45;&gt;[root] meta.count&#45;boundary (EachMode fixup)</title>
<path fill="none" stroke="black" d="M397.98,-581.6C365.51,-571.03 316.53,-555.08 277.86,-542.49"/>
<polygon fill="black" stroke="black" points="278.86,-539.13 268.26,-539.36 276.69,-545.79 278.86,-539.13"/>
</g>
<!-- [root] root&#45;&gt;[root] provider[&quot;registry.terraform.io/hashicorp/aws&quot;] (close) -->
<g id="edge19" class="edge">
<title>[root] root&#45;&gt;[root] provider[&quot;registry.terraform.io/hashicorp/aws&quot;] (close)</title>
<path fill="none" stroke="black" d="M468.18,-581.6C500.58,-571.1 549.35,-555.29 588.08,-542.74"/>
<polygon fill="black" stroke="black" points="589.26,-546.04 597.69,-539.63 587.1,-539.38 589.26,-546.04"/>
</g>
</g>
</svg>
